<?xml version="1.0" encoding="UTF-8"?>
<svg id="Laag_1" xmlns="http://www.w3.org/2000/svg" version="1.1" viewBox="0 0 2100 762.8">
  <!-- Generator: Adobe Illustrator 30.0.0, SVG Export Plug-In . SVG Version: 2.1.1 Build 123)  -->
  <defs>
    <style>
      .st0 {
        fill: #fff;
      }
    </style>
  </defs>
  <path class="st0" d="M929.1,158.5c-34.4,0-45.9,15.8-41.2,41.9,6,33.4,65.2,12,63,49.3-.8,13.6-8.6,36-26.9,42-12.6,4.1-28.9-2-35.4-13-6.6-11.2-8.7-27.3-11.9-39.5-5.1-19.8-16.6-50.2-46.8-43.1-12.9,3-27.2,14-22.5,25.6,6.8,16.7,25.4,7.3,38.7,19.3,9.3,8.4,2,24.5-4.9,34.8-8.4,12.3-25.1,16.1-35.7,13.2-34.9-9.3-29.9-48.5-15-68.2,8.6-11.4,18.8-22,19.2-36.5.3-12.2-8.8-23-23.1-27.6-24.4-7.7-50.6-6.9-62.3,11.8-10.1,16.1-5,39.8,23.5,52.4,9.6,4.2,20.5,11.9,23.2,23.3,2.8,11.9,4.9,30.3-1.6,49.9-6.5,19.6-22.6,33.4-21.9,49.9.5,11.4,11.9,18,39,18,53,0,57.3-112.7,80.2-106.3,11.5,3.2,12,26,13.7,37.3,2.7,18.1,3.5,36.9,12.6,50.1,5.3,7.6,17.2,18.9,33.1,18.9s8.6-12.7,9.2-17.4c1.3-10,2.3-20,4.1-29.9,3.9-20.6,11.1-40.1,18.1-60,8.6-24.4,19.5-51.6,10.2-75.5-4.8-12.2-18.4-20.6-38.3-20.6h-.3Z"/>
  <path class="st0" d="M921.8,568.1c-13.4-17.7-15.9-22.4-24.3-36.3-4.4-7.2-7.1-17.5-7.4-24.7-.5-12.4.9-24.4,3.5-30.9,3.4-8.3,9.1-11.9,16.7-17.3,10.5-7.4,17.6-21.1,17.6-28s1.4-30.5-41.9-30.5-44.9,22.2-41.4,36.4c2.8,11.2,6.6,17.2,22.3,25.4,6.5,3.4,13.4,6,15.7,14.5,2.1,7.8,1.6,9.2.5,27.3-.6,9.4-1.7,16.4-7,26-10.3,18.7-30.7,37.1-34.8,57-2.6,12.6.3,17.3,14.5,17.3h63c11.6,0,15.7-2.3,16.9-6,2.8-8-5.4-18.9-14-30.2h.1Z"/>
  <path class="st0" d="M465.7,552.8c-15.4-15.3-35.7-38.3-41.9-60.2-6.8-24-3.8-29.1-2.6-54.1,1-20.9-8.4-33.9-21-37.1-13.7-3.5-30.3,4.6-32.5,25.8-2.1,20.2-2,43.7-20.7,93-10.2,26.9-24.8,47.8-38.8,63.1-21.6,23.5,5.2,20.8,5.6,20.8h64.8c5.6,0,16.5,1.1,9-9.3-13.4-18.3-51.1-34.7-38-68.7,12.2-31.5,60.4-43.7,77.8-13.8,29.1,49.9-19.9,61.6-24.7,83-1.9,8.3.4,8.8,13.7,8.8h65.2c9.9,0,20,.8,20-6.1,0-13.4-22.5-31.8-35.9-45.2h0ZM413.3,463.6c-2.8,41.7-47.7,27.5-36.2-9.1,8.5-27.1,38-18.7,36.2,9.1Z"/>
  <path class="st0" d="M1746.4,545c-10.3,22.9,29.3,48.2-12.5,52.8-15.7,1.7-35.5-3.9-42.3-14.4-7-10.8-16.3-25.7,24.4-77.6,40.8-52,34.7-108.1-9.4-108.1s-56.6,25.7-28.6,62.7c12.1,16,33.1,25.6,16.5,64.6-2.9,6.8-12.8,27.1-29.8,53.3-3.2,4.9-9.3,16.9-8,24.3h0c2.7,14.6,34.6,2.4,71.7,1.9,19.1-.2,34.3,5.4,50.8,5.4,29.5,0,41.9-23.9,43.8-40.8,5.1-44.4-58.2-65.1-76.6-24.2h0Z"/>
  <path class="st0" d="M1657.5,315.9c-10.9-15-30.8-49.6-35.1-62.4-1.8-7.7.8-14.5.8-14.5,7-16.1,15.2-30.3,22.1-41,15.5-24-6.5-37.9-21.9-37.9s-27.5,7-27.5,19.2,39.2,29,25.1,52.7c-10.6,17.8-43.1,23.3-56.6,5.8-21.2-27.2,20.3-39.5,20.3-54.6s-11.4-23.1-29.9-23.1-31.8,7.2-31.8,26.6,14.9,21.5,23,29.5c8.6,8.5,11.5,23.6,10.5,39.5-.9,7.3-5.8,18.8-7.8,24-10,22.9-24.5,46.5-36.8,61.1-14.4,17.1-13.5,23.2.7,23.2h70.9c13.6,0,.2-14-5.2-18.9-14.1-13.1-38.1-28.3-26-57.8,14.6-35.5,54.6-45.5,75.9-7.8,24.1,42.8-21.5,58-28.5,75-3.4,8.4,2.3,9.5,11,9.5h67.7c12.9,0,14.5-2.6,14.5-7.9,0-7.9-23.7-24.3-35.3-40.2h0Z"/>
  <path class="st0" d="M332.9,361.2c-2.9,0-7.7,0-14.4,0-6.7,0-15.4.3-26.2.7-1.5,0-2.3-.3-2.3-1s.8-1,2.3-1c6.9,0,11.6-.9,14-2.6,2.4-1.7,4.1-5,5-9.8.8-2.7,1.3-6,1.7-10.1.4-4,.7-9.3.9-15.8.2-2.3.3-9.5.3-21.6v-51.2c0-2.3,0-5.2-.1-8.6,0-3.4-.1-9.4-.1-17.8-.2-9.4-.3-16.2-.4-20.4,0-4.2-.1-7.8-.1-10.6,0-12.7-.8-20.2-2.4-22.6-1.6-2.4-7.1-3.6-16.5-3.6s-1.7-.4-1.7-1.3.6-1.3,1.7-1.3h3c1.6,0,5,0,10.2.3,7.7.2,13,.3,16,.3h10.1c2.2,0,6.5,0,12.8-.3,10-.2,17-.3,21.1-.3h8.8c31.1,0,57.1,9.4,78.2,28.3,21.1,18.9,31.6,42.7,31.6,71.5s-10.3,52.8-30.8,71.5-46.5,28-78,28-3.4,0-6.2,0c-2.8,0-7.6,0-14.5,0-7.7-.2-13.1-.3-16.4-.4-3.3,0-5.8,0-7.5,0h-.1ZM378.1,359.1c25.7,0,45.9-8.6,60.5-25.9,14.7-17.3,22-40.8,22-70.8s-7.7-53.1-23-70.8c-15.3-17.6-36-26.5-61.8-26.5h-19c-7.3,0-12,1.1-14.1,3.2-2.1,2.1-3.6,6.1-4.3,12.1-.4,3.1-.7,6.8-.9,11.2-.2,4.4-.4,10.2-.6,17.3v106.7c0,9.8-.2,18.6-.7,26.3-.5,7.8-1,13.1-1.6,16,1,0,2.4,0,4.5,0,2,0,5.7.2,11.1.4,8.2.2,14.3.3,18.1.4,3.8,0,7.1,0,9.8,0v.2Z"/>
  <path class="st0" d="M677.5,335c-9.8,9.6-21,17-33.7,22.2s-25.7,7.8-39.1,7.8c-27.8,0-51.5-9.9-71-29.6-19.6-19.7-29.3-44-29.3-72.8s2.5-27.2,7.6-39.7,12.4-23.5,22-33.1,20.7-17,33.2-22.2c12.6-5.2,25.6-7.8,39.3-7.8s26.4,2.6,39,7.9c12.6,5.3,23.5,12.7,32.9,22.3s16.6,20.6,21.7,33.1c5.1,12.5,7.6,25.6,7.6,39.4s-2.6,26.9-7.8,39.4-12.7,23.5-22.4,33.1h0ZM530.2,262.5c0,30.5,6.6,54.7,19.7,72.6,13.1,17.9,31,26.9,53.6,26.9s42.3-9.2,56.8-27.6c14.5-18.4,21.7-42.4,21.7-71.9s-6.7-54.7-20.1-72.8c-13.4-18-31.5-27-54.4-27s-42.1,9.2-56.2,27.5c-14.1,18.3-21.1,42.4-21.1,72.3Z"/>
  <path class="st0" d="M1166.6,362.9c-.8,0-1.8-.6-3.2-1.9-1.3-1.2-2.7-2.7-4-4.5l-138.6-173.2-.3,104.1c0,9.2.3,17.5.9,24.7.6,7.3,1.3,13.6,2.3,19,1.9,9.8,4.8,16.9,8.6,21.4,3.8,4.5,10,6.8,18.4,6.8h4c1,0,1.4.4,1.4,1.3s-.5,1.3-1.4,1.3h-8.8c-3.9,0-10.3-.2-19.1-.6-3.6-.2-6.1-.3-7.3-.3h-5.3c-1.2,0-3.1,0-5.8.3-4,.2-7.1.3-9.3.4-2.2,0-4.1,0-5.6,0s-1.7-.4-1.7-1.3.7-1.3,2-1.3h1.7c6.7-.2,11.4-2.6,14-7.2,2.6-4.6,4.5-12.5,5.6-23.6.6-5.2,1-11.2,1.3-18s.4-14.5.4-23.2l.3-103.3c0-1.3-.4-2.8-1.1-4.3-.8-1.5-1.9-3.1-3.5-4.6-3.8-3.8-7.5-6.5-10.9-8.1-3.5-1.5-7.4-2.3-11.8-2.3h-1.2c-1,0-1.4-.4-1.4-1.2s.5-1.2,1.4-1.2c7.9,0,15.1,0,21.7-.3,6.6-.2,12.8-.5,18.6-.9h2.6c.8,0,1.3,0,1.7.4.4.3.8.7,1.1,1.3,1,1.7,2.4,3.9,4.3,6.6,1.9,2.7,4.2,5.6,6.9,8.6l119.7,148.7v-90c0-9.2-.3-17.5-1-24.9s-1.7-13.8-3-19.4c-2.1-9.6-5.3-16.6-9.5-21s-10.6-6.6-19.3-6.6h-4c-1.2,0-1.7-.4-1.7-1.3s.6-1.3,1.7-1.3c1.7,0,4.3,0,7.6,0,3.4,0,9.1.2,17.1.4,5,.2,8.4.3,10.2.3h5.9c1,0,2.7,0,5.2-.3,4-.2,7.1-.3,9.2-.4,2.1,0,4,0,5.8,0s1.7.4,1.7,1.3-.6,1.3-1.7,1.3h-2c-5.9,0-9.9,1.2-11.8,3.7s-3.4,6.9-4.3,13.2c-.6,3.3-1,7.1-1.3,11.6s-.5,9.8-.7,16c0,3.8,0,8,0,12.5s0,9.4,0,14.8v122.8c0,1.2-.2,1.9-.6,2.3-.4.4-1,.6-1.7.6l-.2.7Z"/>
  <path class="st0" d="M1393.9,361.4c-6.3.2-10.9.3-13.8.4-2.9,0-5.1,0-6.6,0s-1.7-.4-1.7-1.3.6-1.3,1.7-1.3h5.2c5.8,0,9.4-1.2,10.9-3.7s2.7-7.2,3.4-14.1c.2-3.1.4-6.8.6-11.1s.4-9.6.6-16v-149.9c-2.7.2-5.8.3-9.2.3h-14.4c-13.6,0-24.1,4.4-31.5,13.2s-12.7,24-16,45.4l-2.3,16.4c-.4,1-1,1.4-1.9,1.4s-1.2-.5-1-1.4l2.3-16.4c.8-6.3,1.3-13.1,1.7-20.3.4-7.2.7-16.3.9-27.2,0-5.2,0-8.4,0-9.8,0-1.3.2-2.1.4-2.3,1-.6,4.8-1.1,11.6-1.4,6.8-.4,14.6-.6,23.4-.6h5c2.2,0,6.4,0,12.5.3,8.8.2,15.2.3,19.3.3h15.1c1.8,0,4.5,0,7.9-.3,6.1,0,11.7,0,16.5,0,4.9,0,10.4,0,16.5,0,8.8,0,16.7.2,23.6.6,6.9.4,10.8.9,11.8,1.4.2.2.3,1,.4,2.3,0,1.3,0,4.5,0,9.5.2,10.9.5,20,.9,27.2s1.1,14.1,2,20.6l2,16.4c.2,1,0,1.4-.9,1.4s-1.3-.5-1.7-1.4l-2.6-16.4c-3.3-21.5-8.6-36.6-16-45.4-7.4-8.8-18-13.3-31.8-13.5h-23v149.9c.2,6.3.4,11.6.6,16,.2,4.3.4,8,.6,11.1.8,6.9,1.9,11.6,3.5,14.1,1.5,2.5,5.2,3.7,10.9,3.7h5.2c1.2,0,1.7.4,1.7,1.3s-.6,1.3-1.7,1.3c-1.7,0-4,0-6.8,0-2.8,0-7.3-.2-13.7-.4-4-.2-6.8-.3-8.2-.3h-6.2c-1.5,0-4.3,0-8.3.3h.4Z"/>
  <path class="st0" d="M1744.8,361.2l-40.6.9c-1.5,0-2.3-.3-2.3-1s.8-1,2.3-1c6.9,0,11.5-.9,13.7-2.6,2.2-1.7,3.9-5.1,5-10.1.6-2.5,1.1-5.7,1.6-9.6.5-3.9.9-9.3,1.3-16,.4-5.4.7-12.4.9-21.1.2-8.7.3-29.9.3-63.4v-15.1c0-4.5,0-8.6-.3-12.2,0-6.1,0-11.4-.4-15.7s-.6-8-1-11.1c-.8-6.7-2-11.4-3.7-14s-5.5-3.9-11.2-3.9h-5.2c-1.2,0-1.7-.4-1.7-1.3s.6-1.3,1.7-1.3,3.7,0,6.6,0c2.9,0,7.5.2,13.8.4,4,.2,6.8.3,8.3.3h9.9c3.9,0,12.4,0,25.5-.3,24.7-.2,41.9-.3,51.5-.4,9.6,0,15.4,0,17.5,0,3.4,0,6.4,0,8.8.3s4,.5,4.7.9c.4.2,1.2,4.7,2.6,13.5,1.3,8.8,3.3,22,5.8,39.4l1.2,10.4c.2,1,0,1.4-1,1.4s-1.5-.5-1.9-1.4l-1.4-10.4c-2.7-15.9-9.3-28.3-20-37.1-10.6-8.8-24.2-13.3-40.7-13.5h-36.5c-5,0-8,1.2-9.1,3.6-1.1,2.4-1.7,7.4-1.9,15.1,0,2.1,0,4.8,0,8.1,0,3.3,0,9.3,0,18.1v46h23.9c15.3,0,26.5-2.5,33.4-7.5s10.4-13.5,10.4-25.6v-6c0-1.2.5-1.7,1.4-1.7s1.4.6,1.4,1.7c0,1.7,0,4.4,0,7.9,0,3.6-.3,9.6-.7,18.3-.2,5.4-.3,9-.4,10.9s0,3.2,0,3.7,0,2.4,0,4.9c0,2.5.2,7.3.4,14.4.4,7.3.6,12.3.7,15,0,2.7,0,4.4,0,5.2s-.5,1.7-1.4,1.7-1.4-.6-1.4-1.7v-4.3c0-12.1-3.5-20.7-10.4-25.7-6.9-5.1-18-7.6-33.4-7.6h-23.9v55.2c0,9.8-.2,18.6-.7,26.3s-1,13.1-1.6,16c1.5,0,4,0,7.5,0,3.4,0,9.8,0,19,0,9.6.2,16.3.3,20,.4,3.7,0,6.4,0,7.9,0,15.3,0,28.8-5.7,40.3-17s18.3-25,20.4-41.1l1.7-15.2c.2-1,.8-1.4,1.9-1.3,1.1,0,1.5.6,1.3,1.6l-1.7,15.5c-2.5,22.6-4.4,38-5.6,46-1.2,8.1-2.3,12.6-3.3,13.5-.4.4-3,.7-7.8.9s-15,.3-30.5.3-16.2,0-28.3-.3c-12.2-.2-27-.4-44.4-.6h-.2Z"/>
  <path class="st0" d="M122,604.5c-4.6.2-7.6.3-9.1.3h-2.7c-1.2,0-1.7-.4-1.7-1.3s.6-1.3,1.7-1.3c3.1,0,5.8,0,8.1,0,2.3,0,4-.2,5.2-.4,1.9-1.9,3.3-4.7,4-8.2.8-3.5,1.3-9.4,1.7-17.7.2-6.7.4-15.9.6-27.5.2-11.6.3-21.6.3-30.1v-65.3c-.2-6.3-.4-11.6-.6-16-.2-4.3-.4-8-.6-11.1-.8-6.9-1.9-11.6-3.5-14.1-1.5-2.5-5.2-3.7-10.9-3.7h-5.2c-1.2,0-1.7-.4-1.7-1.3s.6-1.3,1.7-1.3,3.7,0,6.6,0c2.9,0,7.5.2,13.8.4,4,.2,6.8.3,8.3.3h3.2c.8,0,2.2,0,4.2,0,2,0,6,0,11.9,0,6.9-.2,11.6-.3,14.1-.4,2.5,0,4.2,0,5.2,0,24.2,0,42.5,4,54.9,12.1,12.5,8.1,18.7,19.8,18.7,35.4s-5.7,20.9-17.1,29.3c-11.4,8.4-26.1,14.1-44.2,17,12.3.4,21.9,3.6,28.8,9.8,6.9,6.1,15.1,18.6,24.5,37.4,4,8.4,7.4,15.4,10.2,20.9s5.2,10.1,7.3,14c4.6,8.1,8.9,13.6,12.8,16.5,3.9,3,9.4,4.5,16.5,4.5h2c1.3,0,2,.4,2,1.3s-.7,1.3-2,1.3h-10.4c-2.1,0-4.2,0-6.2,0-2,0-4.7.3-7.9.7-1.7,0-3,0-3.7,0-.8,0-1.4,0-2,0-3.3,0-5.9-.5-8.1-1.6-2.1-1.1-4.3-2.8-6.6-5.3-3.4-4-7.2-9.7-11.2-17s-8.2-16.1-12.7-26.5c-4.2-9.8-7.9-17.7-11.1-23.9-3.2-6.1-6.2-11-9.1-14.7-4.4-5.8-9.2-9.8-14.2-12.1-5.1-2.3-13.2-3.6-24.3-3.7h-11.8v56.1c.2,6.3.4,11.6.6,16,.2,4.3.4,8,.6,11.1.8,6.9,1.9,11.6,3.4,14.1s5.2,3.7,10.9,3.7h5.8c1.2,0,1.7.4,1.7,1.3s-.6,1.3-1.7,1.3c-1.7,0-4,0-6.8,0-2.8,0-7.3,0-13.7,0-3.8-.2-6.5-.3-7.9-.3h-8.5c-2.7,0-7.5,0-14.4.3h.3ZM152.2,426.1c-.2,2.5-.3,5.6-.3,9.3v62.9c2.1-.2,4.6-.3,7.6-.3h16.5c14,0,25.6-4.1,34.8-12.4,9.2-8.2,13.8-19.3,13.8-33.1s-4-26.8-12.1-33.9c-8.1-7.1-20.8-10.6-38.3-10.6h-11.2c-4.8,0-7.8,1.2-8.9,3.6-1.2,2.4-1.8,7.2-2,14.5h0Z"/>
  <path class="st0" d="M528.1,604.2c-6.3.2-10.9.3-13.8.4-2.9,0-5.1,0-6.6,0s-1.7-.4-1.7-1.3.6-1.3,1.7-1.3h5.2c5.8,0,9.4-1.2,10.9-3.7s2.7-7.2,3.5-14.1c.2-3.1.4-6.8.6-11.1.2-4.3.4-9.6.6-16v-104.4c-.2-6.3-.4-11.6-.6-16-.2-4.3-.4-8-.6-11.1-.8-6.9-1.9-11.6-3.5-14.1-1.5-2.5-5.2-3.7-10.9-3.7h-5.2c-1.2,0-1.7-.4-1.7-1.3s.6-1.3,1.7-1.3,3.7,0,6.6,0c2.9,0,7.5.2,13.8.4,4,.2,6.8.3,8.3.3h3.2c.6,0,2.3,0,5,0,2.8,0,8.2,0,16.3,0,9.8-.2,16.4-.3,19.8-.4,3.4,0,5.7,0,6.6,0,26.7,0,45.9,3.7,57.8,11.2,11.9,7.5,17.8,19.4,17.8,35.7s-5,23.9-15.1,32.1-24.6,13.4-43.6,15.7c20.3,1.5,36.3,6.7,47.9,15.5,11.6,8.8,17.4,20.4,17.4,34.8s-6.2,31.8-18.7,40.8-31.2,13.5-56.1,13.5-3.5,0-7.5,0c-4,0-11.7-.2-23-.4-9.4,0-15.7,0-19,0-3.3,0-5.2,0-5.8,0h-3.2c-1.5,0-4.3,0-8.3.3h.2ZM583,408.9h-20.7c-5.4,0-8.6,1.1-9.6,3.4-1.1,2.3-1.7,7.3-1.9,15v6.8c0,2.6,0,9.2.3,19.7v45.5h32.8c19,0,32.8-3.8,41.6-11.4,8.7-7.6,13.1-19.5,13.1-35.8s-4.1-26.6-12.2-33.2c-8.2-6.6-22.6-9.9-43.3-9.9h0ZM552.3,584c.6,7.1,1.6,11.9,3.2,14.4,1.5,2.5,5.1,3.7,10.6,3.7h24.5c18.8,0,32.6-4.2,41.4-12.5,8.8-8.3,13.2-21.4,13.2-39.3s-4.6-28.9-13.8-36.5c-9.2-7.7-23.8-11.5-43.7-11.5h-36.5v54.9c.2,6.3.3,11.6.4,15.8,0,4.2.3,7.9.7,10.9h0Z"/>
  <path class="st0" d="M699.2,604.2c-6.3.2-10.9.3-13.8.4-2.9,0-5.1,0-6.6,0s-1.7-.4-1.7-1.3.6-1.3,1.7-1.3h5.2c5.8,0,9.4-1.2,10.9-3.7s2.7-7.2,3.5-14.1c.2-3.1.4-6.8.6-11.1.2-4.3.4-9.6.6-16v-104.4c-.2-6.3-.4-11.6-.6-16-.2-4.3-.4-8-.6-11.1-.8-6.9-1.9-11.6-3.5-14.1-1.5-2.5-5.2-3.7-10.9-3.7h-5.2c-1.2,0-1.7-.4-1.7-1.3s.6-1.3,1.7-1.3,3.7,0,6.6,0c2.9,0,7.5.2,13.8.4,4,.2,6.8.3,8.3.3h3.2c.6,0,2.3,0,5,0,2.8,0,8.2,0,16.3,0,9.8-.2,16.4-.3,19.8-.4,3.4,0,5.7,0,6.6,0,26.7,0,45.9,3.7,57.8,11.2,11.9,7.5,17.8,19.4,17.8,35.7s-5,23.9-15.1,32.1-24.6,13.4-43.6,15.7c20.3,1.5,36.3,6.7,47.9,15.5,11.6,8.8,17.4,20.4,17.4,34.8s-6.2,31.8-18.7,40.8-31.2,13.5-56.1,13.5-3.5,0-7.5,0c-4,0-11.7-.2-23-.4-9.4,0-15.7,0-19,0-3.3,0-5.2,0-5.8,0h-3.2c-1.5,0-4.3,0-8.3.3h.2ZM754.1,408.9h-20.7c-5.4,0-8.6,1.1-9.6,3.4-1.1,2.3-1.7,7.3-1.9,15v6.8c0,2.6,0,9.2.3,19.7v45.5h32.8c19,0,32.8-3.8,41.6-11.4,8.7-7.6,13.1-19.5,13.1-35.8s-4.1-26.6-12.2-33.2c-8.2-6.6-22.6-9.9-43.3-9.9h0ZM723.3,584c.6,7.1,1.6,11.9,3.2,14.4,1.5,2.5,5.1,3.7,10.6,3.7h24.5c18.8,0,32.6-4.2,41.4-12.5,8.8-8.3,13.2-21.4,13.2-39.3s-4.6-28.9-13.8-36.5c-9.2-7.7-23.8-11.5-43.7-11.5h-36.5v54.9c.2,6.3.3,11.6.4,15.8,0,4.2.3,7.9.7,10.9h0Z"/>
  <path class="st0" d="M1011,604.2c-6.3.2-10.9.3-13.8.4-2.9,0-5.1,0-6.6,0s-1.7-.4-1.7-1.3.6-1.3,1.7-1.3h5.2c5.8,0,9.4-1.2,10.9-3.7s2.7-7.2,3.4-14.1c.2-3.1.4-6.8.6-11.1.2-4.3.4-9.6.6-16v-149.9c-2.7.2-5.8.3-9.2.3h-14.4c-13.6,0-24.1,4.4-31.5,13.2s-12.7,24-16,45.4l-2.3,16.4c-.4,1-1,1.4-1.9,1.4s-1.2-.5-1-1.4l2.3-16.4c.8-6.3,1.3-13.1,1.7-20.3.4-7.2.7-16.3.9-27.2,0-5.2,0-8.4,0-9.8,0-1.3.2-2.1.4-2.3,1-.6,4.8-1.1,11.6-1.4,6.8-.4,14.6-.6,23.4-.6h5c2.2,0,6.4,0,12.5.3,8.8.2,15.2.3,19.3.3h15.1c1.8,0,4.5,0,7.9-.3,6.1,0,11.7,0,16.5,0,4.9,0,10.4,0,16.5,0,8.8,0,16.7.2,23.6.6,6.9.4,10.8.9,11.8,1.4.2.2.3,1,.4,2.3,0,1.3,0,4.5,0,9.5.2,10.9.5,20,.9,27.2s1.1,14.1,2,20.6l2,16.4c.2,1,0,1.4-.9,1.4s-1.3-.5-1.7-1.4l-2.6-16.4c-3.3-21.5-8.6-36.6-16-45.4-7.4-8.8-18-13.3-31.8-13.5h-23v149.9c.2,6.3.4,11.6.6,16,.2,4.3.4,8,.6,11.1.8,6.9,1.9,11.6,3.5,14.1,1.5,2.5,5.2,3.7,10.9,3.7h5.2c1.2,0,1.7.4,1.7,1.3s-.6,1.3-1.7,1.3c-1.7,0-4,0-6.8,0-2.8,0-7.3-.2-13.7-.4-4-.2-6.8-.3-8.2-.3h-6.2c-1.5,0-4.3,0-8.3.3h.4Z"/>
  <path class="st0" d="M1270.2,530.3v-77.4c-.2-6.3-.4-11.6-.6-16-.2-4.3-.4-8-.6-11.1-.8-6.9-1.9-11.6-3.5-14.1-1.5-2.5-5.2-3.7-10.9-3.7h-3.7c-1.2,0-1.7-.4-1.7-1.3s.6-1.3,1.7-1.3,3.7,0,6.5,0c2.8,0,7.1.2,13.1.4,3.8.2,6.5.3,7.9.3h6c1.4,0,4.2,0,8.2-.3,6.3-.2,10.9-.3,13.8-.4,2.9,0,5.2,0,6.9,0s1.7.4,1.7,1.3-.6,1.3-1.7,1.3h-5.8c-5.8,0-9.4,1.2-10.9,3.7s-2.7,7.2-3.4,14.1c-.2,3.1-.4,6.8-.6,11.1-.2,4.3-.4,9.6-.6,16v50.1l52.9-.6,51.2.9v-50.3c-.2-6.3-.4-11.6-.6-16-.2-4.3-.4-8-.6-11.1-.8-6.9-1.9-11.6-3.5-14.1-1.5-2.5-5.2-3.7-10.9-3.7h-6c-1.2,0-1.7-.4-1.7-1.3s.6-1.3,1.7-1.3c1.7,0,4,0,6.9,0,2.9,0,7.5.2,13.8.4,4,.2,6.8.3,8.3.3h6.2c1.4,0,4.1,0,7.9-.3,6.1-.2,10.6-.3,13.4-.4,2.8,0,5,0,6.8,0s1.7.4,1.7,1.3-.6,1.3-1.7,1.3h-4.6c-5.6,0-9.1,1.2-10.6,3.7s-2.7,7.2-3.4,14.1c-.2,3.1-.4,6.8-.6,11.2-.2,4.4-.4,9.7-.6,15.8v104.4c.2,6.1.4,11.4.6,15.7.2,4.3.4,8,.6,11.1.6,6.9,1.7,11.7,3.3,14.2,1.6,2.6,5.2,3.9,10.8,3.9h4.6c1.2,0,1.7.4,1.7,1.3s-.6,1.3-1.7,1.3c-1.7,0-4,0-6.8,0-2.8,0-7.2-.2-13.4-.4-3.8-.2-6.5-.3-7.9-.3h-6.2c-1.5,0-4.3,0-8.3.3-6.3.2-10.9.3-13.8.4-2.9,0-5.2,0-6.9,0s-1.7-.4-1.7-1.3.6-1.3,1.7-1.3h6c5.8,0,9.4-1.2,10.9-3.7s2.7-7.2,3.5-14.1c.2-3.1.4-6.8.6-11.1.2-4.3.4-9.6.6-16v-51.5l-50.9.6c-9,0-18.6,0-28.6,0-10.1,0-18.3-.2-24.6-.4v51.5c.2,6.3.4,11.6.6,16,.2,4.3.4,8,.6,11.1.8,6.9,1.9,11.6,3.4,14.1s5.2,3.7,10.9,3.7h5.8c1.2,0,1.7.4,1.7,1.3s-.6,1.3-1.7,1.3c-1.7,0-4,0-6.9,0-2.9,0-7.5-.2-13.8-.4-4-.2-6.8-.3-8.2-.3h-6c-1.4,0-4.1,0-7.9.3-5.9.2-10.3.3-13.1.4-2.8,0-4.9,0-6.5,0s-1.7-.4-1.7-1.3.6-1.3,1.7-1.3h3.7c5.8,0,9.4-1.2,10.9-3.7s2.7-7.2,3.5-14.1c.2-3.1.4-6.8.6-11.1.2-4.3.4-9.6.6-16v-27h-.1Z"/>
  <path class="st0" d="M1621.1,577.7c-9.8,9.6-21,17-33.7,22.2s-25.7,7.8-39.1,7.8c-27.8,0-51.5-9.9-71-29.6-19.6-19.7-29.3-44-29.3-72.8s2.5-27.2,7.6-39.7,12.4-23.5,22-33.1,20.7-17,33.2-22.2c12.6-5.2,25.6-7.8,39.3-7.8s26.4,2.6,39,7.9c12.6,5.3,23.5,12.7,32.9,22.3,9.4,9.6,16.6,20.6,21.7,33.1s7.6,25.6,7.6,39.4-2.6,26.9-7.8,39.4c-5.2,12.5-12.7,23.5-22.4,33.1h0ZM1473.9,505.2c0,30.5,6.6,54.7,19.7,72.6s31,26.9,53.6,26.9,42.3-9.2,56.8-27.6,21.7-42.4,21.7-71.9-6.7-54.7-20.1-72.8c-13.4-18-31.5-27-54.4-27s-42.1,9.2-56.2,27.5c-14.1,18.3-21.1,42.4-21.1,72.3Z"/>
  <path class="st0" d="M1871.2,603.9l-40.6.9c-1.5,0-2.3-.3-2.3-1s.8-1,2.3-1c6.9,0,11.5-.9,13.7-2.6s3.9-5.1,5-10.1c.6-2.5,1.1-5.7,1.6-9.6s.9-9.3,1.3-16c.4-5.4.7-12.4.9-21.1.2-8.7.3-29.9.3-63.4v-15.1c0-4.5,0-8.6-.3-12.2,0-6.1,0-11.4-.4-15.7-.3-4.3-.6-8-1-11.1-.8-6.7-2-11.4-3.7-14s-5.5-3.9-11.2-3.9h-5.2c-1.2,0-1.7-.4-1.7-1.3s.6-1.3,1.7-1.3,3.7,0,6.6,0c2.9,0,7.5.2,13.8.4,4,.2,6.8.3,8.3.3h9.9c3.9,0,12.4,0,25.5-.3,24.7-.2,41.9-.3,51.5-.4,9.6,0,15.4,0,17.5,0,3.4,0,6.4,0,8.8.3s4,.5,4.7.9c.4.2,1.2,4.7,2.6,13.5,1.3,8.8,3.3,22,5.8,39.4l1.2,10.4c.2,1,0,1.4-1,1.4s-1.5-.5-1.9-1.4l-1.4-10.4c-2.7-15.9-9.3-28.3-20-37.1-10.6-8.8-24.2-13.3-40.7-13.5h-36.5c-5,0-8,1.2-9.1,3.6-1.1,2.4-1.7,7.4-1.9,15.1,0,2.1,0,4.8,0,8.1,0,3.3,0,9.3,0,18.1v46h23.9c15.3,0,26.5-2.5,33.4-7.5s10.4-13.5,10.4-25.6v-6c0-1.2.5-1.7,1.4-1.7s1.4.6,1.4,1.7c0,1.7,0,4.4,0,7.9,0,3.6-.3,9.6-.7,18.3-.2,5.4-.3,9-.4,10.9s0,3.2,0,3.7,0,2.4,0,4.9c0,2.5.2,7.3.4,14.4.4,7.3.6,12.3.7,15,0,2.7,0,4.4,0,5.2s-.5,1.7-1.4,1.7-1.4-.6-1.4-1.7v-4.3c0-12.1-3.5-20.7-10.4-25.7-6.9-5.1-18-7.6-33.4-7.6h-23.9v55.2c0,9.8-.2,18.6-.7,26.3-.5,7.8-1,13.1-1.6,16,1.5,0,4,0,7.5,0,3.4,0,9.8,0,19,0,9.6.2,16.3.3,20,.4s6.4,0,7.9,0c15.3,0,28.8-5.7,40.3-17s18.3-25,20.4-41.1l1.7-15.2c.2-1,.8-1.4,1.9-1.3s1.5.6,1.3,1.6l-1.7,15.5c-2.5,22.6-4.4,38-5.6,46-1.2,8.1-2.3,12.6-3.3,13.5-.4.4-3,.7-7.8.9-4.8.2-15,.3-30.5.3s-16.2,0-28.3-.3c-12.2-.2-27-.4-44.4-.6h-.2Z"/>
</svg>